<svg xmlns="http://www.w3.org/2000/svg" version="1.1" xmlns:xlink="http://www.w3.org/1999/xlink" xmlns:svgjs="http://svgjs.dev/svgjs" width="1600" height="1000" preserveAspectRatio="none" viewBox="0 0 1600 1000">
    <g mask="url(&quot;#SvgjsMask1014&quot;)" fill="none">
        <rect width="1600" height="1000" x="0" y="0" fill="rgba(62, 120, 178, 1)"></rect>
        <path d="M14.11 185.13L83.39 225.13L83.39 305.13L14.11 345.13L-55.17 305.13L-55.17 225.13zM221.96 545.13L291.25 585.13L291.25 665.13L221.96 705.13L152.68 665.13L152.68 585.13zM429.81 905.13L499.1 945.13L499.1 1025.13L429.81 1065.13L360.53 1025.13L360.53 945.13zM568.38 665.13L637.67 705.13L637.67 785.13L568.38 825.13L499.1 785.13L499.1 705.13zM637.67 785.13L706.95 825.13L706.95 905.13L637.67 945.13L568.38 905.13L568.38 825.13zM706.95 -54.87L776.23 -14.87L776.23 65.13L706.95 105.13L637.67 65.13L637.67 -14.87zM845.52 905.13L914.8 945.13L914.8 1025.13L845.52 1065.13L776.23 1025.13L776.23 945.13zM1469.07 65.13L1538.36 105.13L1538.36 185.13L1469.07 225.13L1399.79 185.13L1399.79 105.13zM1469.07 785.13L1538.36 825.13L1538.36 905.13L1469.07 945.13L1399.79 905.13L1399.79 825.13zM1607.64 65.13L1676.93 105.13L1676.93 185.13L1607.64 225.13L1538.36 185.13L1538.36 105.13z" stroke="rgba(66, 68, 90, 1)" stroke-width="2"></path>
        <path d="M6.11 185.13 a8 8 0 1 0 16 0 a8 8 0 1 0 -16 0zM75.39 225.13 a8 8 0 1 0 16 0 a8 8 0 1 0 -16 0zM75.39 305.13 a8 8 0 1 0 16 0 a8 8 0 1 0 -16 0zM6.11 345.13 a8 8 0 1 0 16 0 a8 8 0 1 0 -16 0zM-63.17 305.13 a8 8 0 1 0 16 0 a8 8 0 1 0 -16 0zM-63.17 225.13 a8 8 0 1 0 16 0 a8 8 0 1 0 -16 0zM213.96 545.13 a8 8 0 1 0 16 0 a8 8 0 1 0 -16 0zM283.25 585.13 a8 8 0 1 0 16 0 a8 8 0 1 0 -16 0zM283.25 665.13 a8 8 0 1 0 16 0 a8 8 0 1 0 -16 0zM213.96 705.13 a8 8 0 1 0 16 0 a8 8 0 1 0 -16 0zM144.68 665.13 a8 8 0 1 0 16 0 a8 8 0 1 0 -16 0zM144.68 585.13 a8 8 0 1 0 16 0 a8 8 0 1 0 -16 0zM421.81 905.13 a8 8 0 1 0 16 0 a8 8 0 1 0 -16 0zM491.1 945.13 a8 8 0 1 0 16 0 a8 8 0 1 0 -16 0zM491.1 1025.13 a8 8 0 1 0 16 0 a8 8 0 1 0 -16 0zM421.81 1065.13 a8 8 0 1 0 16 0 a8 8 0 1 0 -16 0zM352.53 1025.13 a8 8 0 1 0 16 0 a8 8 0 1 0 -16 0zM352.53 945.13 a8 8 0 1 0 16 0 a8 8 0 1 0 -16 0zM560.38 665.13 a8 8 0 1 0 16 0 a8 8 0 1 0 -16 0zM629.67 705.13 a8 8 0 1 0 16 0 a8 8 0 1 0 -16 0zM629.67 785.13 a8 8 0 1 0 16 0 a8 8 0 1 0 -16 0zM560.38 825.13 a8 8 0 1 0 16 0 a8 8 0 1 0 -16 0zM491.1 785.13 a8 8 0 1 0 16 0 a8 8 0 1 0 -16 0zM491.1 705.13 a8 8 0 1 0 16 0 a8 8 0 1 0 -16 0zM698.95 825.13 a8 8 0 1 0 16 0 a8 8 0 1 0 -16 0zM698.95 905.13 a8 8 0 1 0 16 0 a8 8 0 1 0 -16 0zM629.67 945.13 a8 8 0 1 0 16 0 a8 8 0 1 0 -16 0zM560.38 905.13 a8 8 0 1 0 16 0 a8 8 0 1 0 -16 0zM698.95 -54.87 a8 8 0 1 0 16 0 a8 8 0 1 0 -16 0zM768.23 -14.87 a8 8 0 1 0 16 0 a8 8 0 1 0 -16 0zM768.23 65.13 a8 8 0 1 0 16 0 a8 8 0 1 0 -16 0zM698.95 105.13 a8 8 0 1 0 16 0 a8 8 0 1 0 -16 0zM629.67 65.13 a8 8 0 1 0 16 0 a8 8 0 1 0 -16 0zM629.67 -14.87 a8 8 0 1 0 16 0 a8 8 0 1 0 -16 0zM837.52 905.13 a8 8 0 1 0 16 0 a8 8 0 1 0 -16 0zM906.8 945.13 a8 8 0 1 0 16 0 a8 8 0 1 0 -16 0zM906.8 1025.13 a8 8 0 1 0 16 0 a8 8 0 1 0 -16 0zM837.52 1065.13 a8 8 0 1 0 16 0 a8 8 0 1 0 -16 0zM768.23 1025.13 a8 8 0 1 0 16 0 a8 8 0 1 0 -16 0zM768.23 945.13 a8 8 0 1 0 16 0 a8 8 0 1 0 -16 0zM1461.07 65.13 a8 8 0 1 0 16 0 a8 8 0 1 0 -16 0zM1530.36 105.13 a8 8 0 1 0 16 0 a8 8 0 1 0 -16 0zM1530.36 185.13 a8 8 0 1 0 16 0 a8 8 0 1 0 -16 0zM1461.07 225.13 a8 8 0 1 0 16 0 a8 8 0 1 0 -16 0zM1391.79 185.13 a8 8 0 1 0 16 0 a8 8 0 1 0 -16 0zM1391.79 105.13 a8 8 0 1 0 16 0 a8 8 0 1 0 -16 0zM1461.07 785.13 a8 8 0 1 0 16 0 a8 8 0 1 0 -16 0zM1530.36 825.13 a8 8 0 1 0 16 0 a8 8 0 1 0 -16 0zM1530.36 905.13 a8 8 0 1 0 16 0 a8 8 0 1 0 -16 0zM1461.07 945.13 a8 8 0 1 0 16 0 a8 8 0 1 0 -16 0zM1391.79 905.13 a8 8 0 1 0 16 0 a8 8 0 1 0 -16 0zM1391.79 825.13 a8 8 0 1 0 16 0 a8 8 0 1 0 -16 0zM1599.64 65.13 a8 8 0 1 0 16 0 a8 8 0 1 0 -16 0zM1668.93 105.13 a8 8 0 1 0 16 0 a8 8 0 1 0 -16 0zM1668.93 185.13 a8 8 0 1 0 16 0 a8 8 0 1 0 -16 0zM1599.64 225.13 a8 8 0 1 0 16 0 a8 8 0 1 0 -16 0z" fill="rgba(66, 68, 90, 1)"></path>
        <path d="M75.44 76.53L140.4 114.03L140.4 189.03L75.44 226.53L10.49 189.03L10.49 114.03zM75.44 301.53L140.4 339.03L140.4 414.03L75.44 451.53L10.49 414.03L10.49 339.03zM10.49 414.03L75.44 451.53L75.44 526.53L10.49 564.03L-54.46 526.53L-54.46 451.53zM75.44 526.53L140.4 564.03L140.4 639.03L75.44 676.53L10.49 639.03L10.49 564.03zM75.44 976.53L140.4 1014.03L140.4 1089.03L75.44 1126.53L10.49 1089.03L10.49 1014.03zM205.35 76.53L270.31 114.03L270.31 189.03L205.35 226.53L140.4 189.03L140.4 114.03zM140.4 189.03L205.35 226.53L205.35 301.53L140.4 339.03L75.44 301.53L75.44 226.53zM140.4 639.03L205.35 676.53L205.35 751.53L140.4 789.03L75.44 751.53L75.44 676.53zM205.35 976.53L270.31 1014.03L270.31 1089.03L205.35 1126.53L140.4 1089.03L140.4 1014.03zM335.26 76.53L400.21 114.03L400.21 189.03L335.26 226.53L270.31 189.03L270.31 114.03zM335.26 526.53L400.21 564.03L400.21 639.03L335.26 676.53L270.31 639.03L270.31 564.03zM270.31 639.03L335.26 676.53L335.26 751.53L270.31 789.03L205.35 751.53L205.35 676.53zM335.26 976.53L400.21 1014.03L400.21 1089.03L335.26 1126.53L270.31 1089.03L270.31 1014.03zM400.21 -35.97L465.17 1.53L465.17 76.53L400.21 114.03L335.26 76.53L335.26 1.53zM465.17 76.53L530.12 114.03L530.12 189.03L465.17 226.53L400.21 189.03L400.21 114.03zM465.17 301.53L530.12 339.03L530.12 414.03L465.17 451.53L400.21 414.03L400.21 339.03zM400.21 639.03L465.17 676.53L465.17 751.53L400.21 789.03L335.26 751.53L335.26 676.53zM400.21 864.03L465.17 901.53L465.17 976.53L400.21 1014.03L335.26 976.53L335.26 901.53zM530.12 414.03L595.07 451.53L595.07 526.53L530.12 564.03L465.17 526.53L465.17 451.53zM595.07 526.53L660.03 564.03L660.03 639.03L595.07 676.53L530.12 639.03L530.12 564.03zM530.12 639.03L595.07 676.53L595.07 751.53L530.12 789.03L465.17 751.53L465.17 676.53zM595.07 976.53L660.03 1014.03L660.03 1089.03L595.07 1126.53L530.12 1089.03L530.12 1014.03zM660.03 -35.97L724.98 1.53L724.98 76.53L660.03 114.03L595.07 76.53L595.07 1.53zM724.98 76.53L789.94 114.03L789.94 189.03L724.98 226.53L660.03 189.03L660.03 114.03zM660.03 189.03L724.98 226.53L724.98 301.53L660.03 339.03L595.07 301.53L595.07 226.53zM660.03 414.03L724.98 451.53L724.98 526.53L660.03 564.03L595.07 526.53L595.07 451.53zM789.93 -35.97L854.89 1.53L854.89 76.53L789.93 114.03L724.98 76.53L724.98 1.53zM854.89 76.53L919.84 114.03L919.84 189.03L854.89 226.53L789.93 189.03L789.93 114.03zM789.93 189.03L854.89 226.53L854.89 301.53L789.93 339.03L724.98 301.53L724.98 226.53zM854.89 301.53L919.84 339.03L919.84 414.03L854.89 451.53L789.93 414.03L789.93 339.03zM854.89 976.53L919.84 1014.03L919.84 1089.03L854.89 1126.53L789.93 1089.03L789.93 1014.03zM919.84 -35.97L984.8 1.53L984.8 76.53L919.84 114.03L854.89 76.53L854.89 1.53zM919.84 189.03L984.8 226.53L984.8 301.53L919.84 339.03L854.89 301.53L854.89 226.53zM984.8 301.53L1049.75 339.03L1049.75 414.03L984.8 451.53L919.84 414.03L919.84 339.03zM919.84 414.03L984.8 451.53L984.8 526.53L919.84 564.03L854.89 526.53L854.89 451.53zM919.84 639.03L984.8 676.53L984.8 751.53L919.84 789.03L854.89 751.53L854.89 676.53zM1049.75 -35.97L1114.7 1.53L1114.7 76.53L1049.75 114.03L984.8 76.53L984.8 1.53zM1114.7 301.53L1179.66 339.03L1179.66 414.03L1114.7 451.53L1049.75 414.03L1049.75 339.03zM1114.7 526.53L1179.66 564.03L1179.66 639.03L1114.7 676.53L1049.75 639.03L1049.75 564.03zM1049.75 639.03L1114.7 676.53L1114.7 751.53L1049.75 789.03L984.8 751.53L984.8 676.53zM1114.7 751.53L1179.66 789.03L1179.66 864.03L1114.7 901.53L1049.75 864.03L1049.75 789.03zM1114.7 976.53L1179.66 1014.03L1179.66 1089.03L1114.7 1126.53L1049.75 1089.03L1049.75 1014.03zM1244.61 301.53L1309.56 339.03L1309.56 414.03L1244.61 451.53L1179.66 414.03L1179.66 339.03zM1244.61 526.53L1309.56 564.03L1309.56 639.03L1244.61 676.53L1179.66 639.03L1179.66 564.03zM1179.66 639.03L1244.61 676.53L1244.61 751.53L1179.66 789.03L1114.7 751.53L1114.7 676.53zM1179.66 864.03L1244.61 901.53L1244.61 976.53L1179.66 1014.03L1114.7 976.53L1114.7 901.53zM1309.57 -35.97L1374.52 1.53L1374.52 76.53L1309.57 114.03L1244.61 76.53L1244.61 1.53zM1374.52 76.53L1439.47 114.03L1439.47 189.03L1374.52 226.53L1309.57 189.03L1309.57 114.03zM1309.57 414.03L1374.52 451.53L1374.52 526.53L1309.57 564.03L1244.61 526.53L1244.61 451.53zM1374.52 526.53L1439.47 564.03L1439.47 639.03L1374.52 676.53L1309.57 639.03L1309.57 564.03zM1309.57 639.03L1374.52 676.53L1374.52 751.53L1309.57 789.03L1244.61 751.53L1244.61 676.53zM1309.57 864.03L1374.52 901.53L1374.52 976.53L1309.57 1014.03L1244.61 976.53L1244.61 901.53zM1374.52 976.53L1439.47 1014.03L1439.47 1089.03L1374.52 1126.53L1309.57 1089.03L1309.57 1014.03zM1439.47 -35.97L1504.43 1.53L1504.43 76.53L1439.47 114.03L1374.52 76.53L1374.52 1.53zM1504.43 76.53L1569.38 114.03L1569.38 189.03L1504.43 226.53L1439.47 189.03L1439.47 114.03zM1439.47 189.03L1504.43 226.53L1504.43 301.53L1439.47 339.03L1374.52 301.53L1374.52 226.53zM1439.47 639.03L1504.43 676.53L1504.43 751.53L1439.47 789.03L1374.52 751.53L1374.52 676.53zM1504.43 751.53L1569.38 789.03L1569.38 864.03L1504.43 901.53L1439.47 864.03L1439.47 789.03zM1504.43 976.53L1569.38 1014.03L1569.38 1089.03L1504.43 1126.53L1439.47 1089.03L1439.47 1014.03zM1634.33 76.53L1699.29 114.03L1699.29 189.03L1634.33 226.53L1569.38 189.03L1569.38 114.03zM1569.38 189.03L1634.33 226.53L1634.33 301.53L1569.38 339.03L1504.43 301.53L1504.43 226.53zM1569.38 414.03L1634.33 451.53L1634.33 526.53L1569.38 564.03L1504.43 526.53L1504.43 451.53zM1569.38 639.03L1634.33 676.53L1634.33 751.53L1569.38 789.03L1504.43 751.53L1504.43 676.53zM1634.33 751.53L1699.29 789.03L1699.29 864.03L1634.33 901.53L1569.38 864.03L1569.38 789.03z" stroke="rgba(255, 255, 255, 1)" stroke-width="2"></path>
        <path d="M67.94 76.53 a7.5 7.5 0 1 0 15 0 a7.5 7.5 0 1 0 -15 0zM132.9 114.03 a7.5 7.5 0 1 0 15 0 a7.5 7.5 0 1 0 -15 0zM132.9 189.03 a7.5 7.5 0 1 0 15 0 a7.5 7.5 0 1 0 -15 0zM67.94 226.53 a7.5 7.5 0 1 0 15 0 a7.5 7.5 0 1 0 -15 0zM2.99 189.03 a7.5 7.5 0 1 0 15 0 a7.5 7.5 0 1 0 -15 0zM2.99 114.03 a7.5 7.5 0 1 0 15 0 a7.5 7.5 0 1 0 -15 0zM67.94 301.53 a7.5 7.5 0 1 0 15 0 a7.5 7.5 0 1 0 -15 0zM132.9 339.03 a7.5 7.5 0 1 0 15 0 a7.5 7.5 0 1 0 -15 0zM132.9 414.03 a7.5 7.5 0 1 0 15 0 a7.5 7.5 0 1 0 -15 0zM67.94 451.53 a7.5 7.5 0 1 0 15 0 a7.5 7.5 0 1 0 -15 0zM2.99 414.03 a7.5 7.5 0 1 0 15 0 a7.5 7.5 0 1 0 -15 0zM2.99 339.03 a7.5 7.5 0 1 0 15 0 a7.5 7.5 0 1 0 -15 0zM67.94 526.53 a7.5 7.5 0 1 0 15 0 a7.5 7.5 0 1 0 -15 0zM2.99 564.03 a7.5 7.5 0 1 0 15 0 a7.5 7.5 0 1 0 -15 0zM-61.96 526.53 a7.5 7.5 0 1 0 15 0 a7.5 7.5 0 1 0 -15 0zM-61.96 451.53 a7.5 7.5 0 1 0 15 0 a7.5 7.5 0 1 0 -15 0zM132.9 564.03 a7.5 7.5 0 1 0 15 0 a7.5 7.5 0 1 0 -15 0zM132.9 639.03 a7.5 7.5 0 1 0 15 0 a7.5 7.5 0 1 0 -15 0zM67.94 676.53 a7.5 7.5 0 1 0 15 0 a7.5 7.5 0 1 0 -15 0zM2.99 639.03 a7.5 7.5 0 1 0 15 0 a7.5 7.5 0 1 0 -15 0zM67.94 976.53 a7.5 7.5 0 1 0 15 0 a7.5 7.5 0 1 0 -15 0zM132.9 1014.03 a7.5 7.5 0 1 0 15 0 a7.5 7.5 0 1 0 -15 0zM132.9 1089.03 a7.5 7.5 0 1 0 15 0 a7.5 7.5 0 1 0 -15 0zM67.94 1126.53 a7.5 7.5 0 1 0 15 0 a7.5 7.5 0 1 0 -15 0zM2.99 1089.03 a7.5 7.5 0 1 0 15 0 a7.5 7.5 0 1 0 -15 0zM2.99 1014.03 a7.5 7.5 0 1 0 15 0 a7.5 7.5 0 1 0 -15 0zM197.85 76.53 a7.5 7.5 0 1 0 15 0 a7.5 7.5 0 1 0 -15 0zM262.81 114.03 a7.5 7.5 0 1 0 15 0 a7.5 7.5 0 1 0 -15 0zM262.81 189.03 a7.5 7.5 0 1 0 15 0 a7.5 7.5 0 1 0 -15 0zM197.85 226.53 a7.5 7.5 0 1 0 15 0 a7.5 7.5 0 1 0 -15 0zM197.85 301.53 a7.5 7.5 0 1 0 15 0 a7.5 7.5 0 1 0 -15 0zM197.85 676.53 a7.5 7.5 0 1 0 15 0 a7.5 7.5 0 1 0 -15 0zM197.85 751.53 a7.5 7.5 0 1 0 15 0 a7.5 7.5 0 1 0 -15 0zM132.9 789.03 a7.5 7.5 0 1 0 15 0 a7.5 7.5 0 1 0 -15 0zM67.94 751.53 a7.5 7.5 0 1 0 15 0 a7.5 7.5 0 1 0 -15 0zM197.85 976.53 a7.5 7.5 0 1 0 15 0 a7.5 7.5 0 1 0 -15 0zM262.81 1014.03 a7.5 7.5 0 1 0 15 0 a7.5 7.5 0 1 0 -15 0zM262.81 1089.03 a7.5 7.5 0 1 0 15 0 a7.5 7.5 0 1 0 -15 0zM197.85 1126.53 a7.5 7.5 0 1 0 15 0 a7.5 7.5 0 1 0 -15 0zM327.76 76.53 a7.5 7.5 0 1 0 15 0 a7.5 7.5 0 1 0 -15 0zM392.71 114.03 a7.5 7.5 0 1 0 15 0 a7.5 7.5 0 1 0 -15 0zM392.71 189.03 a7.5 7.5 0 1 0 15 0 a7.5 7.5 0 1 0 -15 0zM327.76 226.53 a7.5 7.5 0 1 0 15 0 a7.5 7.5 0 1 0 -15 0zM327.76 526.53 a7.5 7.5 0 1 0 15 0 a7.5 7.5 0 1 0 -15 0zM392.71 564.03 a7.5 7.5 0 1 0 15 0 a7.5 7.5 0 1 0 -15 0zM392.71 639.03 a7.5 7.5 0 1 0 15 0 a7.5 7.5 0 1 0 -15 0zM327.76 676.53 a7.5 7.5 0 1 0 15 0 a7.5 7.5 0 1 0 -15 0zM262.81 639.03 a7.5 7.5 0 1 0 15 0 a7.5 7.5 0 1 0 -15 0zM262.81 564.03 a7.5 7.5 0 1 0 15 0 a7.5 7.5 0 1 0 -15 0zM327.76 751.53 a7.5 7.5 0 1 0 15 0 a7.5 7.5 0 1 0 -15 0zM262.81 789.03 a7.5 7.5 0 1 0 15 0 a7.5 7.5 0 1 0 -15 0zM327.76 976.53 a7.5 7.5 0 1 0 15 0 a7.5 7.5 0 1 0 -15 0zM392.71 1014.03 a7.5 7.5 0 1 0 15 0 a7.5 7.5 0 1 0 -15 0zM392.71 1089.03 a7.5 7.5 0 1 0 15 0 a7.5 7.5 0 1 0 -15 0zM327.76 1126.53 a7.5 7.5 0 1 0 15 0 a7.5 7.5 0 1 0 -15 0zM392.71 -35.97 a7.5 7.5 0 1 0 15 0 a7.5 7.5 0 1 0 -15 0zM457.67 1.53 a7.5 7.5 0 1 0 15 0 a7.5 7.5 0 1 0 -15 0zM457.67 76.53 a7.5 7.5 0 1 0 15 0 a7.5 7.5 0 1 0 -15 0zM327.76 1.53 a7.5 7.5 0 1 0 15 0 a7.5 7.5 0 1 0 -15 0zM522.62 114.03 a7.5 7.5 0 1 0 15 0 a7.5 7.5 0 1 0 -15 0zM522.62 189.03 a7.5 7.5 0 1 0 15 0 a7.5 7.5 0 1 0 -15 0zM457.67 226.53 a7.5 7.5 0 1 0 15 0 a7.5 7.5 0 1 0 -15 0zM457.67 301.53 a7.5 7.5 0 1 0 15 0 a7.5 7.5 0 1 0 -15 0zM522.62 339.03 a7.5 7.5 0 1 0 15 0 a7.5 7.5 0 1 0 -15 0zM522.62 414.03 a7.5 7.5 0 1 0 15 0 a7.5 7.5 0 1 0 -15 0zM457.67 451.53 a7.5 7.5 0 1 0 15 0 a7.5 7.5 0 1 0 -15 0zM392.71 414.03 a7.5 7.5 0 1 0 15 0 a7.5 7.5 0 1 0 -15 0zM392.71 339.03 a7.5 7.5 0 1 0 15 0 a7.5 7.5 0 1 0 -15 0zM457.67 676.53 a7.5 7.5 0 1 0 15 0 a7.5 7.5 0 1 0 -15 0zM457.67 751.53 a7.5 7.5 0 1 0 15 0 a7.5 7.5 0 1 0 -15 0zM392.71 789.03 a7.5 7.5 0 1 0 15 0 a7.5 7.5 0 1 0 -15 0zM392.71 864.03 a7.5 7.5 0 1 0 15 0 a7.5 7.5 0 1 0 -15 0zM457.67 901.53 a7.5 7.5 0 1 0 15 0 a7.5 7.5 0 1 0 -15 0zM457.67 976.53 a7.5 7.5 0 1 0 15 0 a7.5 7.5 0 1 0 -15 0zM327.76 901.53 a7.5 7.5 0 1 0 15 0 a7.5 7.5 0 1 0 -15 0zM587.57 451.53 a7.5 7.5 0 1 0 15 0 a7.5 7.5 0 1 0 -15 0zM587.57 526.53 a7.5 7.5 0 1 0 15 0 a7.5 7.5 0 1 0 -15 0zM522.62 564.03 a7.5 7.5 0 1 0 15 0 a7.5 7.5 0 1 0 -15 0zM457.67 526.53 a7.5 7.5 0 1 0 15 0 a7.5 7.5 0 1 0 -15 0zM652.53 564.03 a7.5 7.5 0 1 0 15 0 a7.5 7.5 0 1 0 -15 0zM652.53 639.03 a7.5 7.5 0 1 0 15 0 a7.5 7.5 0 1 0 -15 0zM587.57 676.53 a7.5 7.5 0 1 0 15 0 a7.5 7.5 0 1 0 -15 0zM522.62 639.03 a7.5 7.5 0 1 0 15 0 a7.5 7.5 0 1 0 -15 0zM587.57 751.53 a7.5 7.5 0 1 0 15 0 a7.5 7.5 0 1 0 -15 0zM522.62 789.03 a7.5 7.5 0 1 0 15 0 a7.5 7.5 0 1 0 -15 0zM587.57 976.53 a7.5 7.5 0 1 0 15 0 a7.5 7.5 0 1 0 -15 0zM652.53 1014.03 a7.5 7.5 0 1 0 15 0 a7.5 7.5 0 1 0 -15 0zM652.53 1089.03 a7.5 7.5 0 1 0 15 0 a7.5 7.5 0 1 0 -15 0zM587.57 1126.53 a7.5 7.5 0 1 0 15 0 a7.5 7.5 0 1 0 -15 0zM522.62 1089.03 a7.5 7.5 0 1 0 15 0 a7.5 7.5 0 1 0 -15 0zM522.62 1014.03 a7.5 7.5 0 1 0 15 0 a7.5 7.5 0 1 0 -15 0zM652.53 -35.97 a7.5 7.5 0 1 0 15 0 a7.5 7.5 0 1 0 -15 0zM717.48 1.53 a7.5 7.5 0 1 0 15 0 a7.5 7.5 0 1 0 -15 0zM717.48 76.53 a7.5 7.5 0 1 0 15 0 a7.5 7.5 0 1 0 -15 0zM652.53 114.03 a7.5 7.5 0 1 0 15 0 a7.5 7.5 0 1 0 -15 0zM587.57 76.53 a7.5 7.5 0 1 0 15 0 a7.5 7.5 0 1 0 -15 0zM587.57 1.53 a7.5 7.5 0 1 0 15 0 a7.5 7.5 0 1 0 -15 0zM782.44 114.03 a7.5 7.5 0 1 0 15 0 a7.5 7.5 0 1 0 -15 0zM782.44 189.03 a7.5 7.5 0 1 0 15 0 a7.5 7.5 0 1 0 -15 0zM717.48 226.53 a7.5 7.5 0 1 0 15 0 a7.5 7.5 0 1 0 -15 0zM652.53 189.03 a7.5 7.5 0 1 0 15 0 a7.5 7.5 0 1 0 -15 0zM717.48 301.53 a7.5 7.5 0 1 0 15 0 a7.5 7.5 0 1 0 -15 0zM652.53 339.03 a7.5 7.5 0 1 0 15 0 a7.5 7.5 0 1 0 -15 0zM587.57 301.53 a7.5 7.5 0 1 0 15 0 a7.5 7.5 0 1 0 -15 0zM587.57 226.53 a7.5 7.5 0 1 0 15 0 a7.5 7.5 0 1 0 -15 0zM652.53 414.03 a7.5 7.5 0 1 0 15 0 a7.5 7.5 0 1 0 -15 0zM717.48 451.53 a7.5 7.5 0 1 0 15 0 a7.5 7.5 0 1 0 -15 0zM717.48 526.53 a7.5 7.5 0 1 0 15 0 a7.5 7.5 0 1 0 -15 0zM782.43 -35.97 a7.5 7.5 0 1 0 15 0 a7.5 7.5 0 1 0 -15 0zM847.39 1.53 a7.5 7.5 0 1 0 15 0 a7.5 7.5 0 1 0 -15 0zM847.39 76.53 a7.5 7.5 0 1 0 15 0 a7.5 7.5 0 1 0 -15 0zM782.43 114.03 a7.5 7.5 0 1 0 15 0 a7.5 7.5 0 1 0 -15 0zM912.34 114.03 a7.5 7.5 0 1 0 15 0 a7.5 7.5 0 1 0 -15 0zM912.34 189.03 a7.5 7.5 0 1 0 15 0 a7.5 7.5 0 1 0 -15 0zM847.39 226.53 a7.5 7.5 0 1 0 15 0 a7.5 7.5 0 1 0 -15 0zM782.43 189.03 a7.5 7.5 0 1 0 15 0 a7.5 7.5 0 1 0 -15 0zM847.39 301.53 a7.5 7.5 0 1 0 15 0 a7.5 7.5 0 1 0 -15 0zM782.43 339.03 a7.5 7.5 0 1 0 15 0 a7.5 7.5 0 1 0 -15 0zM912.34 339.03 a7.5 7.5 0 1 0 15 0 a7.5 7.5 0 1 0 -15 0zM912.34 414.03 a7.5 7.5 0 1 0 15 0 a7.5 7.5 0 1 0 -15 0zM847.39 451.53 a7.5 7.5 0 1 0 15 0 a7.5 7.5 0 1 0 -15 0zM782.43 414.03 a7.5 7.5 0 1 0 15 0 a7.5 7.5 0 1 0 -15 0zM847.39 976.53 a7.5 7.5 0 1 0 15 0 a7.5 7.5 0 1 0 -15 0zM912.34 1014.03 a7.5 7.5 0 1 0 15 0 a7.5 7.5 0 1 0 -15 0zM912.34 1089.03 a7.5 7.5 0 1 0 15 0 a7.5 7.5 0 1 0 -15 0zM847.39 1126.53 a7.5 7.5 0 1 0 15 0 a7.5 7.5 0 1 0 -15 0zM782.43 1089.03 a7.5 7.5 0 1 0 15 0 a7.5 7.5 0 1 0 -15 0zM782.43 1014.03 a7.5 7.5 0 1 0 15 0 a7.5 7.5 0 1 0 -15 0zM912.34 -35.97 a7.5 7.5 0 1 0 15 0 a7.5 7.5 0 1 0 -15 0zM977.3 1.53 a7.5 7.5 0 1 0 15 0 a7.5 7.5 0 1 0 -15 0zM977.3 76.53 a7.5 7.5 0 1 0 15 0 a7.5 7.5 0 1 0 -15 0zM977.3 226.53 a7.5 7.5 0 1 0 15 0 a7.5 7.5 0 1 0 -15 0zM977.3 301.53 a7.5 7.5 0 1 0 15 0 a7.5 7.5 0 1 0 -15 0zM1042.25 339.03 a7.5 7.5 0 1 0 15 0 a7.5 7.5 0 1 0 -15 0zM1042.25 414.03 a7.5 7.5 0 1 0 15 0 a7.5 7.5 0 1 0 -15 0zM977.3 451.53 a7.5 7.5 0 1 0 15 0 a7.5 7.5 0 1 0 -15 0zM977.3 526.53 a7.5 7.5 0 1 0 15 0 a7.5 7.5 0 1 0 -15 0zM912.34 564.03 a7.5 7.5 0 1 0 15 0 a7.5 7.5 0 1 0 -15 0zM847.39 526.53 a7.5 7.5 0 1 0 15 0 a7.5 7.5 0 1 0 -15 0zM912.34 639.03 a7.5 7.5 0 1 0 15 0 a7.5 7.5 0 1 0 -15 0zM977.3 676.53 a7.5 7.5 0 1 0 15 0 a7.5 7.5 0 1 0 -15 0zM977.3 751.53 a7.5 7.5 0 1 0 15 0 a7.5 7.5 0 1 0 -15 0zM912.34 789.03 a7.5 7.5 0 1 0 15 0 a7.5 7.5 0 1 0 -15 0zM847.39 751.53 a7.5 7.5 0 1 0 15 0 a7.5 7.5 0 1 0 -15 0zM847.39 676.53 a7.5 7.5 0 1 0 15 0 a7.5 7.5 0 1 0 -15 0zM1042.25 -35.97 a7.5 7.5 0 1 0 15 0 a7.5 7.5 0 1 0 -15 0zM1107.2 1.53 a7.5 7.5 0 1 0 15 0 a7.5 7.5 0 1 0 -15 0zM1107.2 76.53 a7.5 7.5 0 1 0 15 0 a7.5 7.5 0 1 0 -15 0zM1042.25 114.03 a7.5 7.5 0 1 0 15 0 a7.5 7.5 0 1 0 -15 0zM1107.2 301.53 a7.5 7.5 0 1 0 15 0 a7.5 7.5 0 1 0 -15 0zM1172.16 339.03 a7.5 7.5 0 1 0 15 0 a7.5 7.5 0 1 0 -15 0zM1172.16 414.03 a7.5 7.5 0 1 0 15 0 a7.5 7.5 0 1 0 -15 0zM1107.2 451.53 a7.5 7.5 0 1 0 15 0 a7.5 7.5 0 1 0 -15 0zM1107.2 526.53 a7.5 7.5 0 1 0 15 0 a7.5 7.5 0 1 0 -15 0zM1172.16 564.03 a7.5 7.5 0 1 0 15 0 a7.5 7.5 0 1 0 -15 0zM1172.16 639.03 a7.5 7.5 0 1 0 15 0 a7.5 7.5 0 1 0 -15 0zM1107.2 676.53 a7.5 7.5 0 1 0 15 0 a7.5 7.5 0 1 0 -15 0zM1042.25 639.03 a7.5 7.5 0 1 0 15 0 a7.5 7.5 0 1 0 -15 0zM1042.25 564.03 a7.5 7.5 0 1 0 15 0 a7.5 7.5 0 1 0 -15 0zM1107.2 751.53 a7.5 7.5 0 1 0 15 0 a7.5 7.5 0 1 0 -15 0zM1042.25 789.03 a7.5 7.5 0 1 0 15 0 a7.5 7.5 0 1 0 -15 0zM1172.16 789.03 a7.5 7.5 0 1 0 15 0 a7.5 7.5 0 1 0 -15 0zM1172.16 864.03 a7.5 7.5 0 1 0 15 0 a7.5 7.5 0 1 0 -15 0zM1107.2 901.53 a7.5 7.5 0 1 0 15 0 a7.5 7.5 0 1 0 -15 0zM1042.25 864.03 a7.5 7.5 0 1 0 15 0 a7.5 7.5 0 1 0 -15 0zM1107.2 976.53 a7.5 7.5 0 1 0 15 0 a7.5 7.5 0 1 0 -15 0zM1172.16 1014.03 a7.5 7.5 0 1 0 15 0 a7.5 7.5 0 1 0 -15 0zM1172.16 1089.03 a7.5 7.5 0 1 0 15 0 a7.5 7.5 0 1 0 -15 0zM1107.2 1126.53 a7.5 7.5 0 1 0 15 0 a7.5 7.5 0 1 0 -15 0zM1042.25 1089.03 a7.5 7.5 0 1 0 15 0 a7.5 7.5 0 1 0 -15 0zM1042.25 1014.03 a7.5 7.5 0 1 0 15 0 a7.5 7.5 0 1 0 -15 0zM1237.11 301.53 a7.5 7.5 0 1 0 15 0 a7.5 7.5 0 1 0 -15 0zM1302.06 339.03 a7.5 7.5 0 1 0 15 0 a7.5 7.5 0 1 0 -15 0zM1302.06 414.03 a7.5 7.5 0 1 0 15 0 a7.5 7.5 0 1 0 -15 0zM1237.11 451.53 a7.5 7.5 0 1 0 15 0 a7.5 7.5 0 1 0 -15 0zM1237.11 526.53 a7.5 7.5 0 1 0 15 0 a7.5 7.5 0 1 0 -15 0zM1302.06 564.03 a7.5 7.5 0 1 0 15 0 a7.5 7.5 0 1 0 -15 0zM1302.06 639.03 a7.5 7.5 0 1 0 15 0 a7.5 7.5 0 1 0 -15 0zM1237.11 676.53 a7.5 7.5 0 1 0 15 0 a7.5 7.5 0 1 0 -15 0zM1237.11 751.53 a7.5 7.5 0 1 0 15 0 a7.5 7.5 0 1 0 -15 0zM1237.11 901.53 a7.5 7.5 0 1 0 15 0 a7.5 7.5 0 1 0 -15 0zM1237.11 976.53 a7.5 7.5 0 1 0 15 0 a7.5 7.5 0 1 0 -15 0zM1302.07 -35.97 a7.5 7.5 0 1 0 15 0 a7.5 7.5 0 1 0 -15 0zM1367.02 1.53 a7.5 7.5 0 1 0 15 0 a7.5 7.5 0 1 0 -15 0zM1367.02 76.53 a7.5 7.5 0 1 0 15 0 a7.5 7.5 0 1 0 -15 0zM1302.07 114.03 a7.5 7.5 0 1 0 15 0 a7.5 7.5 0 1 0 -15 0zM1237.11 76.53 a7.5 7.5 0 1 0 15 0 a7.5 7.5 0 1 0 -15 0zM1237.11 1.53 a7.5 7.5 0 1 0 15 0 a7.5 7.5 0 1 0 -15 0zM1431.97 114.03 a7.5 7.5 0 1 0 15 0 a7.5 7.5 0 1 0 -15 0zM1431.97 189.03 a7.5 7.5 0 1 0 15 0 a7.5 7.5 0 1 0 -15 0zM1367.02 226.53 a7.5 7.5 0 1 0 15 0 a7.5 7.5 0 1 0 -15 0zM1302.07 189.03 a7.5 7.5 0 1 0 15 0 a7.5 7.5 0 1 0 -15 0zM1302.07 414.03 a7.5 7.5 0 1 0 15 0 a7.5 7.5 0 1 0 -15 0zM1367.02 451.53 a7.5 7.5 0 1 0 15 0 a7.5 7.5 0 1 0 -15 0zM1367.02 526.53 a7.5 7.5 0 1 0 15 0 a7.5 7.5 0 1 0 -15 0zM1302.07 564.03 a7.5 7.5 0 1 0 15 0 a7.5 7.5 0 1 0 -15 0zM1431.97 564.03 a7.5 7.5 0 1 0 15 0 a7.5 7.5 0 1 0 -15 0zM1431.97 639.03 a7.5 7.5 0 1 0 15 0 a7.5 7.5 0 1 0 -15 0zM1367.02 676.53 a7.5 7.5 0 1 0 15 0 a7.5 7.5 0 1 0 -15 0zM1302.07 639.03 a7.5 7.5 0 1 0 15 0 a7.5 7.5 0 1 0 -15 0zM1367.02 751.53 a7.5 7.5 0 1 0 15 0 a7.5 7.5 0 1 0 -15 0zM1302.07 789.03 a7.5 7.5 0 1 0 15 0 a7.5 7.5 0 1 0 -15 0zM1302.07 864.03 a7.5 7.5 0 1 0 15 0 a7.5 7.5 0 1 0 -15 0zM1367.02 901.53 a7.5 7.5 0 1 0 15 0 a7.5 7.5 0 1 0 -15 0zM1367.02 976.53 a7.5 7.5 0 1 0 15 0 a7.5 7.5 0 1 0 -15 0zM1302.07 1014.03 a7.5 7.5 0 1 0 15 0 a7.5 7.5 0 1 0 -15 0zM1431.97 1014.03 a7.5 7.5 0 1 0 15 0 a7.5 7.5 0 1 0 -15 0zM1431.97 1089.03 a7.5 7.5 0 1 0 15 0 a7.5 7.5 0 1 0 -15 0zM1367.02 1126.53 a7.5 7.5 0 1 0 15 0 a7.5 7.5 0 1 0 -15 0zM1302.07 1089.03 a7.5 7.5 0 1 0 15 0 a7.5 7.5 0 1 0 -15 0zM1431.97 -35.97 a7.5 7.5 0 1 0 15 0 a7.5 7.5 0 1 0 -15 0zM1496.93 1.53 a7.5 7.5 0 1 0 15 0 a7.5 7.5 0 1 0 -15 0zM1496.93 76.53 a7.5 7.5 0 1 0 15 0 a7.5 7.5 0 1 0 -15 0zM1561.88 114.03 a7.5 7.5 0 1 0 15 0 a7.5 7.5 0 1 0 -15 0zM1561.88 189.03 a7.5 7.5 0 1 0 15 0 a7.5 7.5 0 1 0 -15 0zM1496.93 226.53 a7.5 7.5 0 1 0 15 0 a7.5 7.5 0 1 0 -15 0zM1496.93 301.53 a7.5 7.5 0 1 0 15 0 a7.5 7.5 0 1 0 -15 0zM1431.97 339.03 a7.5 7.5 0 1 0 15 0 a7.5 7.5 0 1 0 -15 0zM1367.02 301.53 a7.5 7.5 0 1 0 15 0 a7.5 7.5 0 1 0 -15 0zM1496.93 676.53 a7.5 7.5 0 1 0 15 0 a7.5 7.5 0 1 0 -15 0zM1496.93 751.53 a7.5 7.5 0 1 0 15 0 a7.5 7.5 0 1 0 -15 0zM1431.97 789.03 a7.5 7.5 0 1 0 15 0 a7.5 7.5 0 1 0 -15 0zM1561.88 789.03 a7.5 7.5 0 1 0 15 0 a7.5 7.5 0 1 0 -15 0zM1561.88 864.03 a7.5 7.5 0 1 0 15 0 a7.5 7.5 0 1 0 -15 0zM1496.93 901.53 a7.5 7.5 0 1 0 15 0 a7.5 7.5 0 1 0 -15 0zM1431.97 864.03 a7.5 7.5 0 1 0 15 0 a7.5 7.5 0 1 0 -15 0zM1496.93 976.53 a7.5 7.5 0 1 0 15 0 a7.5 7.5 0 1 0 -15 0zM1561.88 1014.03 a7.5 7.5 0 1 0 15 0 a7.5 7.5 0 1 0 -15 0zM1561.88 1089.03 a7.5 7.5 0 1 0 15 0 a7.5 7.5 0 1 0 -15 0zM1496.93 1126.53 a7.5 7.5 0 1 0 15 0 a7.5 7.5 0 1 0 -15 0zM1626.83 76.53 a7.5 7.5 0 1 0 15 0 a7.5 7.5 0 1 0 -15 0zM1691.79 114.03 a7.5 7.5 0 1 0 15 0 a7.5 7.5 0 1 0 -15 0zM1691.79 189.03 a7.5 7.5 0 1 0 15 0 a7.5 7.5 0 1 0 -15 0zM1626.83 226.53 a7.5 7.5 0 1 0 15 0 a7.5 7.5 0 1 0 -15 0zM1626.83 301.53 a7.5 7.5 0 1 0 15 0 a7.5 7.5 0 1 0 -15 0zM1561.88 339.03 a7.5 7.5 0 1 0 15 0 a7.5 7.5 0 1 0 -15 0zM1561.88 414.03 a7.5 7.5 0 1 0 15 0 a7.5 7.5 0 1 0 -15 0zM1626.83 451.53 a7.5 7.5 0 1 0 15 0 a7.5 7.5 0 1 0 -15 0zM1626.83 526.53 a7.5 7.5 0 1 0 15 0 a7.5 7.5 0 1 0 -15 0zM1561.88 564.03 a7.5 7.5 0 1 0 15 0 a7.5 7.5 0 1 0 -15 0zM1496.93 526.53 a7.5 7.5 0 1 0 15 0 a7.5 7.5 0 1 0 -15 0zM1496.93 451.53 a7.5 7.5 0 1 0 15 0 a7.5 7.5 0 1 0 -15 0zM1561.88 639.03 a7.5 7.5 0 1 0 15 0 a7.5 7.5 0 1 0 -15 0zM1626.83 676.53 a7.5 7.5 0 1 0 15 0 a7.5 7.5 0 1 0 -15 0zM1626.83 751.53 a7.5 7.5 0 1 0 15 0 a7.5 7.5 0 1 0 -15 0zM1691.79 789.03 a7.5 7.5 0 1 0 15 0 a7.5 7.5 0 1 0 -15 0zM1691.79 864.03 a7.5 7.5 0 1 0 15 0 a7.5 7.5 0 1 0 -15 0zM1626.83 901.53 a7.5 7.5 0 1 0 15 0 a7.5 7.5 0 1 0 -15 0z" fill="rgba(255, 255, 255, 1)"></path>
        <path d="M139.96 -43.36L204.04 -6.36L204.04 67.64L139.96 104.64L75.87 67.64L75.87 -6.36zM204.04 289.64L268.13 326.64L268.13 400.64L204.04 437.64L139.96 400.64L139.96 326.64zM268.13 844.64L332.22 881.64L332.22 955.64L268.13 992.64L204.04 955.64L204.04 881.64zM588.57 511.64L652.66 548.64L652.66 622.64L588.57 659.64L524.48 622.64L524.48 548.64zM588.57 955.64L652.66 992.64L652.66 1066.64L588.57 1103.64L524.48 1066.64L524.48 992.64zM716.74 67.64L780.83 104.64L780.83 178.64L716.74 215.64L652.66 178.64L652.66 104.64zM973.1 733.64L1037.18 770.64L1037.18 844.64L973.1 881.64L909.01 844.64L909.01 770.64zM909.01 844.64L973.1 881.64L973.1 955.64L909.01 992.64L844.92 955.64L844.92 881.64zM1037.18 -43.36L1101.27 -6.36L1101.27 67.64L1037.18 104.64L973.1 67.64L973.1 -6.36zM1037.18 622.64L1101.27 659.64L1101.27 733.64L1037.18 770.64L973.1 733.64L973.1 659.64zM1229.45 67.64L1293.53 104.64L1293.53 178.64L1229.45 215.64L1165.36 178.64L1165.36 104.64zM1293.53 -43.36L1357.62 -6.36L1357.62 67.64L1293.53 104.64L1229.45 67.64L1229.45 -6.36zM1485.8 67.64L1549.88 104.64L1549.88 178.64L1485.8 215.64L1421.71 178.64L1421.71 104.64zM1485.8 289.64L1549.88 326.64L1549.88 400.64L1485.8 437.64L1421.71 400.64L1421.71 326.64zM1421.71 400.64L1485.8 437.64L1485.8 511.64L1421.71 548.64L1357.62 511.64L1357.62 437.64z" stroke="rgba(6, 80, 156, 0.93)" stroke-width="2"></path>
    </g>
    <defs>
        <mask id="SvgjsMask1014">
            <rect width="1600" height="1000" fill="#ffffff"></rect>
        </mask>
    </defs>
</svg>